<svg width="current" height="current" viewBox="0 0 560 300" fill="none" xmlns="http://www.w3.org/2000/svg">
<path d="M278.64 292.91C347.72 292.91 403.72 236.91 403.72 167.83C403.72 98.7502 347.72 42.75 278.64 42.75C209.56 42.75 153.56 98.7502 153.56 167.83C153.56 236.91 209.56 292.91 278.64 292.91Z" fill="#808080" stroke="black" stroke-miterlimit="10"/>
<path d="M278.64 286.23C347.72 286.23 403.72 230.23 403.72 161.15C403.72 92.0702 347.72 36.0699 278.64 36.0699C209.56 36.0699 153.56 92.0702 153.56 161.15C153.56 230.23 209.56 286.23 278.64 286.23Z" fill="#CCCCCC" stroke="black" stroke-linecap="round" stroke-linejoin="round"/>
<path d="M280 266.33C337.874 266.33 384.79 219.414 384.79 161.54C384.79 103.666 337.874 56.75 280 56.75C222.126 56.75 175.21 103.666 175.21 161.54C175.21 219.414 222.126 266.33 280 266.33Z" fill="white"/>
<path d="M403.7 158.72C403.366 140.691 399.121 122.949 391.26 106.72C398.62 123.523 402.163 141.748 401.633 160.085C401.103 178.421 396.513 196.412 388.193 212.761C379.874 229.11 368.033 243.411 353.522 254.634C339.012 265.856 322.193 273.721 304.277 277.662C286.361 281.603 267.794 281.522 249.914 277.424C232.033 273.327 215.284 265.315 200.872 253.966C186.46 242.617 174.744 228.213 166.568 211.792C158.392 195.37 153.96 177.34 153.59 159C153.59 160.53 153.59 162.07 153.59 163.62C154.236 196.788 168.031 228.341 191.941 251.338C215.851 274.334 247.917 286.891 281.085 286.245C314.253 285.599 345.806 271.804 368.803 247.894C391.799 223.984 404.356 191.918 403.71 158.75L403.7 158.72Z" fill="#999999"/>
<path d="M154.94 167.41C154.369 137.876 164.267 109.094 182.882 86.1577C201.496 63.2219 227.626 47.6128 256.645 42.0942C285.664 36.5757 315.7 41.5038 341.434 56.0059C367.168 70.508 386.94 93.6485 397.25 121.33C391.943 105.622 383.567 91.1248 372.608 78.6823C361.649 66.2398 348.326 56.0997 333.413 48.8515C318.501 41.6033 302.296 37.3917 285.742 36.4613C269.187 35.5309 252.613 37.9004 236.982 43.432C221.352 48.9637 206.976 57.5471 194.692 68.6834C182.408 79.8196 172.46 93.2866 165.426 108.301C158.393 123.316 154.414 139.579 153.721 156.145C153.028 172.712 155.635 189.25 161.39 204.8C157.352 192.737 155.177 180.129 154.94 167.41Z" fill="white"/>
<path d="M278.64 286.23C347.72 286.23 403.72 230.23 403.72 161.15C403.72 92.0702 347.72 36.0699 278.64 36.0699C209.56 36.0699 153.56 92.0702 153.56 161.15C153.56 230.23 209.56 286.23 278.64 286.23Z" stroke="black" stroke-linecap="round" stroke-linejoin="round"/>
<path d="M278.64 260.65C336.194 260.65 382.85 213.994 382.85 156.44C382.85 98.8864 336.194 52.23 278.64 52.23C221.086 52.23 174.43 98.8864 174.43 156.44C174.43 213.994 221.086 260.65 278.64 260.65Z" fill="#999999"/>
<path d="M176.92 163C177.962 136.72 189.135 111.864 208.098 93.6388C227.06 75.4139 252.34 65.2351 278.64 65.2351C304.94 65.2351 330.22 75.4139 349.182 93.6388C368.145 111.864 379.318 136.72 380.36 163C380.44 161 380.15 159.07 380.11 157C379.02 100.78 332.88 56 276.66 57C263.289 57.2484 250.099 60.1308 237.843 65.4824C225.587 70.834 214.507 78.5497 205.237 88.188C195.966 97.8263 188.687 109.198 183.816 121.653C178.945 134.107 176.578 147.4 176.85 160.77C176.87 161.55 176.89 162.27 176.92 163Z" fill="#808080"/>
<path d="M276.66 57.05C264.508 57.2766 252.495 59.6778 241.19 64.14C202.81 79.33 175.24 117.85 176.09 161.54" stroke="black" stroke-linecap="round" stroke-linejoin="round"/>
<path d="M380.75 158.16C378.279 132.281 366.074 108.306 346.602 91.0825C327.13 73.8587 301.845 64.6711 275.858 65.3773C249.871 66.0835 225.122 76.6309 206.614 94.8869C188.107 113.143 177.222 137.745 176.16 163.72C176.232 162.993 176.209 162.26 176.09 161.54C176.748 188.107 187.691 213.381 206.614 232.04C225.538 250.698 250.964 261.283 277.538 261.566C304.111 261.848 329.757 251.806 349.073 233.555C368.389 215.303 379.867 190.267 381.09 163.72C381.09 163.44 381.09 163.15 381.04 162.86C380.88 161.25 380.87 159.5 380.75 158.16Z" fill="white" stroke="black" stroke-linecap="round" stroke-linejoin="round"/>
<path d="M322 66.76C322 66.76 335.95 73.41 343.86 80.83" stroke="black" stroke-linecap="round" stroke-linejoin="round"/>
<path d="M348.65 85.15C348.65 85.15 353.96 90.51 355.72 92.63" stroke="black" stroke-linecap="round" stroke-linejoin="round"/>
<path d="M380.75 158.16C378.279 132.281 366.074 108.306 346.602 91.0825C327.13 73.8587 301.845 64.6711 275.858 65.3773C249.871 66.0835 225.122 76.6309 206.614 94.8869C188.107 113.143 177.222 137.745 176.16 163.72C176.232 162.993 176.209 162.26 176.09 161.54C176.748 188.107 187.691 213.381 206.614 232.04C225.538 250.698 250.964 261.283 277.538 261.566C304.111 261.848 329.757 251.806 349.073 233.555C368.389 215.303 379.867 190.267 381.09 163.72C381.09 163.44 381.09 163.15 381.04 162.86C380.88 161.25 380.87 159.5 380.75 158.16Z" fill="#FBB03B" stroke="black" stroke-linecap="round" stroke-linejoin="round"/>
<path d="M341.71 110.23C342.339 101.132 340.771 92.0157 337.14 83.65C319.571 71.412 298.598 65.0099 277.19 65.35C271.691 68.606 266.757 72.733 262.58 77.57C244.43 98.11 239.46 126.34 239.46 126.34L323.68 171.53C323.68 171.53 340 139.74 341.71 110.23Z" fill="#532E0F" stroke="black" stroke-linecap="round" stroke-linejoin="round"/>
<path d="M329.88 124.17C325.29 139.09 307.21 142.96 288.16 137.1C269.11 131.24 256.33 117.89 260.92 103C265.51 88.11 284.66 80.72 303.71 86.58C322.76 92.44 334.47 109.25 329.88 124.17Z" fill="#C69D66" stroke="black" stroke-linecap="round" stroke-linejoin="round"/>
<path d="M318.65 117.91C309.73 115.3 312.65 105.32 300.75 101.22C292.81 98.48 284.02 103.22 284.02 103.22C274.68 105.44 274.02 97.22 266.25 93.92C263.803 96.4686 261.979 99.549 260.92 102.92C256.33 117.84 269.12 131.2 288.16 137.05C307.2 142.9 325.29 139.05 329.88 124.12C330.443 122.329 330.779 120.475 330.88 118.6C326.31 118.31 322.81 119.13 318.65 117.91Z" fill="white" stroke="black" stroke-linecap="round" stroke-linejoin="round"/>
<path d="M316.84 78.3C317.26 78.4162 317.708 78.3794 318.103 78.1963C318.499 78.0132 318.817 77.6955 319 77.3L319.76 75.16C319.82 74.9154 319.827 74.6608 319.779 74.4134C319.732 74.1661 319.632 73.9319 319.485 73.7268C319.339 73.5217 319.15 73.3506 318.932 73.2252C318.714 73.0998 318.471 73.023 318.22 73C317.798 72.8893 317.352 72.9285 316.956 73.1109C316.56 73.2933 316.24 73.6076 316.05 74L315.3 76.14C315.24 76.3846 315.233 76.6392 315.281 76.8866C315.328 77.1339 315.428 77.3681 315.575 77.5732C315.721 77.7783 315.91 77.9494 316.128 78.0748C316.346 78.2002 316.589 78.277 316.84 78.3Z" fill="black"/>
<path d="M301.19 73.53C301.612 73.6407 302.058 73.6015 302.454 73.419C302.85 73.2366 303.17 72.9224 303.36 72.53L304.11 70.39C304.167 70.1468 304.171 69.8942 304.122 69.6493C304.073 69.4044 303.972 69.1728 303.826 68.9701C303.68 68.7674 303.493 68.5982 303.276 68.474C303.059 68.3498 302.819 68.2734 302.57 68.25C302.15 68.1338 301.702 68.1705 301.307 68.3537C300.911 68.5368 300.593 68.8544 300.41 69.25L299.65 71.39C299.593 71.6332 299.589 71.8857 299.638 72.1307C299.687 72.3756 299.788 72.6072 299.934 72.8099C300.08 73.0126 300.267 73.1818 300.484 73.306C300.701 73.4302 300.941 73.5065 301.19 73.53Z" fill="black"/>
<path d="M315.89 82.79C314.89 85.18 310.17 85.88 305.28 84.26C300.58 82.71 297.57 80.26 298.71 78.02C299.85 75.78 303.71 74.54 308.5 75.7C313.29 76.86 316.88 80.39 315.89 82.79Z" fill="#FFD9B0" stroke="black" stroke-linecap="round" stroke-linejoin="round"/>
<path d="M311.564 76.7918C311.755 76.0028 310.583 75.0416 308.946 74.645C307.309 74.2483 305.827 74.5664 305.636 75.3554C305.445 76.1444 306.617 77.1056 308.254 77.5023C309.891 77.8989 311.373 77.5809 311.564 76.7918Z" fill="#5B3C18" stroke="black" stroke-linecap="round" stroke-linejoin="round"/>
<path d="M295.5 75.35C295.5 75.35 291.58 72.8 288.17 73.35" stroke="black" stroke-linecap="round" stroke-linejoin="round"/>
<path d="M293.55 76.69C291.947 76.2816 290.304 76.0502 288.65 76" stroke="black" stroke-linecap="round" stroke-linejoin="round"/>
<path d="M320.48 82.37C320.48 82.37 325.15 82.03 327.86 84.18" stroke="black" stroke-linecap="round" stroke-linejoin="round"/>
<path d="M321.53 84.49C323.133 84.9053 324.686 85.4955 326.16 86.25" stroke="black" stroke-linecap="round" stroke-linejoin="round"/>
<path d="M309.81 106.16C309.417 105.956 309.112 105.617 308.95 105.205C308.788 104.793 308.781 104.337 308.93 103.92L309.8 101.55C309.887 101.309 310.024 101.089 310.203 100.905C310.381 100.721 310.597 100.577 310.835 100.482C311.073 100.388 311.329 100.345 311.585 100.357C311.841 100.368 312.091 100.434 312.32 100.55C312.717 100.747 313.026 101.084 313.188 101.496C313.351 101.908 313.355 102.365 313.2 102.78L312.33 105.16C312.242 105.4 312.104 105.619 311.925 105.802C311.746 105.985 311.531 106.129 311.293 106.223C311.056 106.317 310.801 106.36 310.545 106.35C310.289 106.339 310.039 106.274 309.81 106.16Z" fill="black"/>
<path d="M290.21 99.35C289.816 99.1477 289.51 98.808 289.35 98.3952C289.189 97.9824 289.186 97.5252 289.34 97.11L290.21 94.74C290.297 94.4989 290.434 94.2791 290.613 94.0951C290.791 93.911 291.007 93.767 291.245 93.6724C291.483 93.5779 291.739 93.535 291.995 93.5467C292.251 93.5583 292.501 93.6242 292.73 93.74C293.129 93.9427 293.438 94.2858 293.599 94.7031C293.759 95.1204 293.76 95.5824 293.6 96L292.73 98.37C292.641 98.6093 292.502 98.8271 292.323 99.0089C292.144 99.1908 291.928 99.3327 291.69 99.4253C291.452 99.5178 291.197 99.559 290.942 99.546C290.687 99.533 290.437 99.4662 290.21 99.35Z" fill="black"/>
<path d="M226.63 237.88C226.63 237.88 211 215.47 202.92 194.94C194.84 174.41 198.44 134.07 229.09 117.88C259.74 101.69 297.33 118.17 308.32 137.4C319.31 156.63 333.63 185.87 333.63 185.87C333.63 185.87 292 226.17 226.63 237.88Z" fill="#1A1A1A" stroke="black" stroke-linecap="round" stroke-linejoin="round"/>
<path d="M313.129 162.259C313.389 155.879 309.722 150.55 304.938 150.354C300.154 150.159 296.064 155.172 295.803 161.551C295.542 167.93 299.21 173.259 303.994 173.455C308.778 173.65 312.868 168.638 313.129 162.259Z" fill="white" stroke="black" stroke-linecap="round" stroke-linejoin="round"/>
<path d="M351.72 195C352.01 191.39 357.22 181.85 350.72 176.35C344.22 170.85 324.84 176.5 321.8 177.96C318.76 179.42 320.95 184.88 320.95 184.88C319.37 186.04 320.07 188.06 320.56 191.04C320.884 193.891 321.011 196.761 320.94 199.63C314.86 200.5 308.07 208.74 308.07 208.74C305.18 208.59 304.45 210.47 298.53 211.79C292.61 213.11 286.66 214 286.66 214C286.66 214 282.17 214.35 275.38 219.77C268.59 225.19 247.09 237.91 247.09 237.91L244 256.12C255.736 260.331 268.143 262.365 280.61 262.12C299.52 261.75 317.79 256.7 336.15 244.49L330.66 235.13C337.315 229.986 343.062 223.763 347.66 216.72C355.48 204.85 351.43 198.63 351.72 195Z" fill="white" stroke="black" stroke-linecap="round" stroke-linejoin="round"/>
<path d="M279.3 213.65C274 216.32 270.94 220.92 272.45 223.92L272.56 224.13C274.08 227.13 279.56 227.4 284.89 224.72C290.22 222.04 293.25 217.45 291.74 214.45L291.63 214.24C290.12 211.24 284.59 211 279.3 213.65Z" fill="white" stroke="black" stroke-linecap="round" stroke-linejoin="round"/>
<path d="M274.24 222.12C275.41 224.44 279.7 224.65 283.81 222.57C287.92 220.49 290.3 216.93 289.12 214.57L283.73 203.91L268.85 211.42L274.24 222.12Z" fill="white" stroke="black" stroke-linecap="round" stroke-linejoin="round"/>
<path d="M216.24 187.25C225.62 179.71 257.95 155.59 294.71 149.52C295.663 149.359 296.642 149.511 297.502 149.953C298.362 150.394 299.056 151.102 299.48 151.97C302.36 157.97 307.91 172.03 303.72 185.47C298.23 203.11 278.82 216.53 255.14 218.47C232.14 220.31 219.34 200.78 215.14 192.83C214.643 191.918 214.481 190.86 214.682 189.841C214.883 188.822 215.434 187.905 216.24 187.25Z" fill="white" stroke="black" stroke-linecap="round" stroke-linejoin="round"/>
<path d="M255.59 182.84C255.59 182.84 261.88 177.33 269.1 176.36C269.1 176.36 270.91 179.36 270.03 182.19C269.15 185.02 266.03 187.19 262.25 187.46C257.65 187.84 255.59 182.84 255.59 182.84Z" fill="#A83131" stroke="black" stroke-linecap="round" stroke-linejoin="round"/>
<path d="M272.54 174.44C271.984 174.641 271.374 174.634 270.823 174.421C270.272 174.208 269.816 173.803 269.54 173.28L267.97 170.28C267.809 169.975 267.715 169.638 267.694 169.294C267.673 168.949 267.726 168.604 267.849 168.281C267.972 167.958 268.162 167.666 268.407 167.422C268.652 167.179 268.946 166.991 269.27 166.87C269.825 166.662 270.438 166.666 270.991 166.879C271.544 167.093 271.999 167.503 272.27 168.03L273.84 171.03C273.999 171.336 274.092 171.672 274.112 172.016C274.132 172.36 274.079 172.705 273.956 173.027C273.833 173.349 273.644 173.642 273.4 173.885C273.155 174.129 272.863 174.318 272.54 174.44Z" fill="black"/>
<path d="M250.27 185.71C249.716 185.916 249.105 185.913 248.553 185.702C248.001 185.49 247.544 185.084 247.27 184.56L245.7 181.56C245.541 181.254 245.449 180.918 245.429 180.574C245.41 180.23 245.464 179.886 245.588 179.564C245.712 179.243 245.903 178.951 246.148 178.709C246.393 178.467 246.687 178.28 247.01 178.16C247.564 177.954 248.175 177.957 248.727 178.168C249.279 178.38 249.736 178.786 250.01 179.31L251.58 182.31C251.737 182.616 251.828 182.952 251.847 183.295C251.865 183.639 251.811 183.983 251.687 184.304C251.564 184.625 251.373 184.916 251.129 185.158C250.885 185.401 250.592 185.589 250.27 185.71Z" fill="black"/>
<path d="M326.42 181C333.65 183.17 341.42 179.71 345.94 179.49C350.46 179.27 354.03 179.54 350.71 176.37C344.2 170.86 324.83 176.52 321.79 177.98C321.673 178.044 321.56 178.114 321.45 178.19C321.11 178.55 321.23 179.43 326.42 181Z" stroke="black" stroke-linecap="round" stroke-linejoin="round"/>
<path d="M345.07 176.36C345.07 171 348.4 168.99 350.85 159.74C353.3 150.49 353.17 132.56 337.26 131.98C321.35 131.4 322.81 150.66 322.81 150.66C322.81 150.66 319.48 146.58 316 150.66C312.52 154.74 321.94 164.66 324.25 167.54C325.617 169.218 326.381 171.306 326.42 173.47V181C333.21 183 340.51 180.11 345.09 179.56C345.08 178.5 345.07 177.42 345.07 176.36Z" fill="white" stroke="black" stroke-linecap="round" stroke-linejoin="round"/>
<path d="M257 259.82C256.956 257.545 256.554 255.291 255.81 253.14C252.21 242.29 249.37 238.96 247.11 233.32C244.85 227.68 238.45 228.93 235.22 230.17C231.99 231.41 217.81 239.34 217.81 239.34C217.159 239.75 216.546 240.218 215.98 240.74C228.055 250.087 242.072 256.607 257 259.82Z" fill="white" stroke="black" stroke-linecap="round" stroke-linejoin="round"/>
<path d="M223.15 245.82C226.605 243.269 230.256 240.995 234.07 239.02C245.29 233.22 246.5 231.69 243.07 229.49C240.38 228.64 237.17 229.41 235.18 230.17C231.95 231.41 217.77 239.34 217.77 239.34C217.121 239.753 216.508 240.221 215.94 240.74C218.28 242.533 220.683 244.227 223.15 245.82Z" fill="white" stroke="black" stroke-linecap="round" stroke-linejoin="round"/>
<path d="M320.93 199.64C320.667 201.084 320.809 202.572 321.34 203.94" stroke="black" stroke-linecap="round" stroke-linejoin="round"/>
<path d="M302.16 106.36C301.96 107.16 300.36 108.08 298.78 107.61C297.2 107.14 296.25 105.46 296.45 104.61C296.65 103.76 297.98 103.98 299.55 104.45C301.12 104.92 302.35 105.56 302.16 106.36Z" fill="#5B3C18" stroke="black" stroke-linecap="round" stroke-linejoin="round"/>
<path d="M298.78 107.61C298.339 108.615 298.17 109.719 298.29 110.81C298.61 112.19 300.81 113.69 303.17 112.09" stroke="black" stroke-linecap="round" stroke-linejoin="round"/>
<path d="M298.31 109.29C298.003 109.934 297.467 110.44 296.808 110.712C296.148 110.983 295.411 111.001 294.74 110.76C294.288 110.659 293.869 110.448 293.519 110.144C293.17 109.84 292.902 109.454 292.74 109.02" stroke="black" stroke-linecap="round" stroke-linejoin="round"/>
<path d="M295.878 92.6703C296.281 92.2602 296.07 91.4011 295.407 90.7514C294.745 90.1018 293.882 89.9076 293.479 90.3177C293.077 90.7278 293.288 91.5869 293.951 92.2365C294.613 92.8862 295.476 93.0804 295.878 92.6703Z" fill="white"/>
<path d="M313.866 97.7561C313.899 97.1827 313.175 96.6745 312.249 96.6211C311.323 96.5677 310.545 96.9892 310.512 97.5627C310.479 98.1361 311.203 98.6442 312.129 98.6977C313.055 98.7511 313.833 98.3295 313.866 97.7561Z" fill="white"/>
<path d="M295.41 110.9C295.41 110.9 294.41 113.33 296.41 114.53C298.41 115.73 300 112.53 300 112.53C299.346 112.308 298.803 111.841 298.484 111.228C298.166 110.615 298.096 109.903 298.29 109.24C298.29 109.24 297.22 111.31 295.41 110.9Z" fill="#ED4F4F" stroke="black" stroke-linecap="round" stroke-linejoin="round"/>
<path d="M239.6 236L236 230.72C234.817 228.91 234.275 226.755 234.46 224.6C234.75 220.91 236.95 207.42 231.78 206C226.61 204.58 226.16 209.83 226.16 209.83C226.16 209.83 216.52 193.09 203.69 202.52C190.86 211.95 200.84 226.85 208.08 233.11C215.32 239.37 219.19 239.17 222.21 243.6L223.54 245.6C226.87 243.125 230.391 240.918 234.07 239C236.29 237.87 238.12 236.89 239.6 236Z" fill="white" stroke="black" stroke-linecap="round" stroke-linejoin="round"/>
<path d="M262.25 187.46C266.04 187.16 269.15 185.01 270.03 182.19C270.381 180.904 270.339 179.542 269.91 178.28C265.063 179.287 260.612 181.681 257.1 185.17C257.705 185.944 258.491 186.558 259.389 186.957C260.287 187.357 261.27 187.529 262.25 187.46Z" fill="#ED4F4F" stroke="black" stroke-linecap="round" stroke-linejoin="round"/>
<path d="M206.21 206.06C206.21 206.06 203.51 207.21 201.77 212.51C200.03 217.81 203.77 225.2 207.63 227.15C211.49 229.1 209.47 220.51 207.63 216.61C205.79 212.71 208.47 210.21 209.84 208.61C211.21 207.01 209.4 203.66 206.21 206.06Z" fill="#E6E6E6"/>
<path d="M229.29 208.32C228.787 208.622 228.392 209.074 228.159 209.611C227.926 210.149 227.867 210.747 227.99 211.32C228.47 213.25 230.2 212.68 230.78 214.22C231.36 215.76 232.89 217.31 233.28 215.77C233.67 214.23 233.77 206.4 229.29 208.32Z" fill="#E6E6E6"/>
<path d="M226.82 218.82C225.91 218.813 225.012 219.029 224.205 219.449C223.398 219.869 222.706 220.481 222.19 221.23C220.35 223.82 222.47 227.03 221.19 229.09C219.91 231.15 218.3 232.3 219.45 234.42C220.6 236.54 225.81 233.42 228.52 230.2C231.23 226.98 232.22 219.31 226.82 218.82Z" fill="#E6E6E6"/>
<path d="M337.73 135.92C337.73 135.92 340.62 135.44 344.94 138.92C349.26 142.4 350.08 150.69 347.89 154.41C345.7 158.13 342.76 149.8 342.2 145.54C341.64 141.28 338.05 140.54 336.01 139.95C333.97 139.36 333.75 135.61 337.73 135.92Z" fill="#E6E6E6"/>
<path d="M319.36 151C319.943 150.988 320.515 151.157 320.998 151.483C321.481 151.809 321.852 152.276 322.06 152.82C322.7 154.7 320.93 155.15 321.27 156.76C321.61 158.37 321.15 160.5 319.99 159.41C318.83 158.32 314.55 151.82 319.36 151Z" fill="#E6E6E6"/>
<path d="M327.09 158.55C327.854 158.056 328.727 157.756 329.633 157.676C330.539 157.596 331.451 157.738 332.29 158.09C335.24 159.29 335.18 163.09 337.35 164.19C339.52 165.29 341.52 165.34 341.69 167.75C341.86 170.16 335.76 170.29 331.77 169.07C327.78 167.85 322.81 161.87 327.09 158.55Z" fill="#E6E6E6"/>
<path d="M261.15 112C261.15 116.23 256.07 119.67 249.8 119.67C243.53 119.67 238.46 116.23 238.46 112C238.46 107.77 243.54 106 249.8 106C256.06 106 261.15 107.73 261.15 112Z" fill="#532E0F" stroke="black" stroke-linecap="round" stroke-linejoin="round"/>
<path d="M317.54 145.59C314.7 148.59 308.7 147.59 304.13 143.32C299.56 139.05 298.13 133.11 300.98 130.08C303.83 127.05 308.73 129.23 313.31 133.51C317.89 137.79 320.37 142.56 317.54 145.59Z" fill="#532E0F" stroke="black" stroke-linecap="round" stroke-linejoin="round"/>
<g opacity="0.3">
<path d="M280.56 258.49C305.733 258.001 329.771 247.921 347.763 230.308C365.755 212.695 376.345 188.877 377.37 163.72C377.37 163.45 377.37 163.17 377.32 162.89C377.13 161.34 377.12 159.66 377 158.36C376.292 150.895 374.739 143.534 372.37 136.42L253.51 255.28C262.335 257.596 271.438 258.676 280.56 258.49Z" fill="white"/>
<path d="M360.7 112.7L228.53 244.87C232.565 247.242 236.762 249.327 241.09 251.11L367.57 124.64C365.557 120.507 363.262 116.517 360.7 112.7Z" fill="white"/>
<path opacity="0.6" d="M276.72 69C251.55 69.4912 227.516 79.5711 209.526 97.1819C191.537 114.793 180.947 138.606 179.92 163.76C179.992 163.06 179.969 162.354 179.85 161.66C179.959 167.12 180.514 172.561 181.51 177.93L289.83 69.57C285.477 69.0926 281.098 68.9022 276.72 69Z" fill="white"/>
</g>
</svg>
