<svg width="60" height="60" viewBox="0 0 60 60" fill="none" xmlns="http://www.w3.org/2000/svg">
<g clip-path="url(#clip0_2_329)">
<path d="M59.6543 29.9997C59.6543 13.6223 46.3777 0.345703 30.0002 0.345703C13.6228 0.345703 0.346191 13.6223 0.346191 29.9997C0.346191 46.3772 13.6228 59.6538 30.0002 59.6538C46.3777 59.6538 59.6543 46.3772 59.6543 29.9997Z" fill="#436005" stroke="black" stroke-width="0.7" stroke-linecap="round" stroke-linejoin="round"/>
<path d="M31.631 49.9572H30.0296C29.3664 49.9572 28.7303 49.6935 28.2613 49.2246C27.7923 48.7556 27.5288 48.1194 27.5288 47.4561V43.2257H34.4481V47.1796C34.4481 47.9136 34.1565 48.6177 33.6374 49.1367C33.1184 49.6558 32.4145 49.9471 31.6804 49.9471L31.631 49.9572Z" fill="white" stroke="black" stroke-width="0.7" stroke-linecap="round" stroke-linejoin="round"/>
<path d="M42 48.1879C40.2892 47.0777 38.2409 46.6087 36.2174 46.8635H28.8039L22.7051 48.02C18.9885 48.4845 16.8929 52.0924 16.8929 55.8485V56.6198C20.9677 58.6358 25.4538 59.681 29.9999 59.674C35.1143 59.6789 40.1421 58.3537 44.5897 55.8288V52.9425C44.5884 51.997 44.3508 51.0666 43.8985 50.2363C43.4462 49.4059 42.7936 48.7019 42 48.1879Z" fill="#F2EDE7" stroke="black" stroke-width="0.7" stroke-linecap="round" stroke-linejoin="round"/>
<path d="M38.2833 46.7249C38.2833 46.7249 37.0972 53.3676 34.2208 55.1568C34.2208 55.1568 29.2784 54.1681 25.3245 47.5058C25.3245 47.5058 19.9473 47.2587 17.5058 51.519C16.7806 53.0073 16.3318 54.6148 16.1812 56.2635C20.4267 58.4973 25.1533 59.6613 29.9506 59.6541C35.3272 59.6625 40.6042 58.2032 45.2125 55.4333C45.2619 53.2587 44.659 47.3575 38.2833 46.7249Z" fill="#1B1B3F" stroke="black" stroke-width="0.7" stroke-linecap="round" stroke-linejoin="round"/>
<path d="M31.9967 50.4613C34.7645 50.4613 37.0082 49.2 37.0082 47.6442C37.0082 46.0883 34.7645 44.827 31.9967 44.827C29.2289 44.827 26.9852 46.0883 26.9852 47.6442C26.9852 49.2 29.2289 50.4613 31.9967 50.4613Z" fill="#F2EDE7" stroke="black" stroke-width="0.7" stroke-linecap="round" stroke-linejoin="round"/>
<path d="M31.9969 49.1957C33.8476 49.1957 35.3478 48.4257 35.3478 47.4758C35.3478 46.5259 33.8476 45.7559 31.9969 45.7559C30.1462 45.7559 28.646 46.5259 28.646 47.4758C28.646 48.4257 30.1462 49.1957 31.9969 49.1957Z" fill="white" stroke="black" stroke-width="0.7" stroke-linecap="round" stroke-linejoin="round"/>
<path d="M34.7152 57.2221C38.6691 54.5533 39.4895 48.929 39.6576 46.962C39.2055 46.8497 38.7465 46.7671 38.2836 46.7148C38.2836 46.7148 37.0974 53.3673 34.221 55.1564C34.221 55.1564 29.2787 54.1677 25.3248 47.5054C24.322 47.4976 23.3233 47.6343 22.3594 47.9109C28.3198 56.5995 34.7152 57.2221 34.7152 57.2221Z" fill="#282828" stroke="black" stroke-width="0.7" stroke-linecap="round" stroke-linejoin="round"/>
<path d="M47.1301 29.8417C47.1301 29.8417 47.2982 40.6656 46.1416 47.0313C43.1764 46.5674 40.3217 45.5622 37.7199 44.0659C33.5486 41.6936 47.1301 29.8417 47.1301 29.8417Z" fill="#212020" stroke="black" stroke-width="0.7" stroke-linecap="round" stroke-linejoin="round"/>
<path d="M31.6408 47.1204H31.8484C40.2883 47.1204 47.1301 40.2785 47.1301 31.8387V27.8549C47.1301 19.415 40.2883 12.5732 31.8484 12.5732H31.6408C23.201 12.5732 16.3591 19.415 16.3591 27.8549V31.8387C16.3591 40.2785 23.201 47.1204 31.6408 47.1204Z" fill="white" stroke="black" stroke-width="0.7" stroke-linecap="round" stroke-linejoin="round"/>
<path d="M47.9901 26.9066C47.9901 26.9066 40.0824 28.9627 24.6129 28.4487C23.5151 34.9597 23.3686 41.5954 24.178 48.1485C24.178 48.1485 15.1532 47.7236 11.0313 44.1058C11.0313 44.1058 5.35754 13.6512 25.8584 11.0713C25.8089 11.0713 46.4382 7.11747 47.9901 26.9066Z" fill="#212020" stroke="black" stroke-width="0.7" stroke-miterlimit="10"/>
<path d="M42.1483 34.9619C42.5021 34.9207 42.8285 34.7511 43.0654 34.4851C43.3023 34.219 43.4332 33.8751 43.4333 33.5188V31.4724C43.4334 31.2652 43.3895 31.0605 43.3045 30.8715C43.2195 30.6825 43.0953 30.5137 42.9402 30.3763C42.7851 30.2389 42.6026 30.1361 42.4047 30.0746C42.2068 30.0131 41.9981 29.9944 41.7924 30.0196C41.4377 30.0631 41.1112 30.2346 40.8744 30.5023C40.6377 30.7699 40.5071 31.115 40.5074 31.4724V33.5188C40.5086 33.7252 40.5536 33.929 40.6392 34.1168C40.7248 34.3046 40.8492 34.4719 41.0042 34.6082C41.1591 34.7445 41.3412 34.8465 41.5384 34.9074C41.7356 34.9683 41.9434 34.987 42.1483 34.9619Z" fill="black"/>
<path d="M32.9953 35.8321C33.35 35.7886 33.6765 35.6171 33.9132 35.3494C34.1499 35.0817 34.2805 34.7366 34.2803 34.3793V32.3329C34.2818 32.1261 34.2392 31.9214 34.1554 31.7324C34.0715 31.5435 33.9482 31.3748 33.7939 31.2372C33.6395 31.0997 33.4575 30.9967 33.2601 30.9351C33.0627 30.8735 32.8545 30.8548 32.6493 30.8801C32.2946 30.9235 31.968 31.095 31.7313 31.3627C31.4946 31.6304 31.364 31.9755 31.3643 32.3329V34.3793C31.3643 34.5856 31.408 34.7891 31.4924 34.9773C31.5768 35.1655 31.7001 35.3338 31.8541 35.4711C32.0081 35.6083 32.1894 35.7115 32.386 35.7737C32.5827 35.8359 32.7903 35.8558 32.9953 35.8321Z" fill="black"/>
<path d="M24.8009 33.5084C24.5036 32.9992 24.0656 32.5866 23.5396 32.3201C23.0136 32.0536 22.4219 31.9445 21.8355 32.0059C20.1452 32.2827 19.0579 34.2202 19.3939 36.3256C19.73 38.4311 21.3709 39.9238 23.0711 39.6569C23.7202 39.5383 24.3036 39.1868 24.7119 38.6684" fill="white"/>
<path d="M24.8009 33.5084C24.5036 32.9992 24.0656 32.5866 23.5396 32.3201C23.0136 32.0536 22.4219 31.9445 21.8355 32.0059C20.1452 32.2827 19.0579 34.2202 19.3939 36.3256C19.73 38.4311 21.3709 39.9238 23.0711 39.6569C23.7202 39.5383 24.3036 39.1868 24.7119 38.6684" stroke="black" stroke-width="0.7" stroke-linecap="round" stroke-linejoin="round"/>
<path d="M44.6739 37.4034C46.8714 37.04 48.4413 35.4664 48.1803 33.8883C47.9194 32.3102 45.9264 31.3253 43.7289 31.6887C41.5314 32.0521 39.9616 33.6262 40.2226 35.2043C40.4835 36.7824 42.4764 37.7668 44.6739 37.4034Z" stroke="black" stroke-width="0.7" stroke-linecap="round" stroke-linejoin="round"/>
<path d="M34.1077 38.1193C36.3052 37.7559 37.8751 36.1819 37.6141 34.6038C37.3531 33.0257 35.3602 32.0413 33.1627 32.4047C30.9652 32.7681 29.3953 34.3417 29.6563 35.9198C29.9173 37.4979 31.9102 38.4827 34.1077 38.1193Z" stroke="black" stroke-width="0.7" stroke-linecap="round" stroke-linejoin="round"/>
<path d="M37.4331 34.8827C37.8069 34.6307 38.2475 34.4961 38.6984 34.4961C39.1492 34.4961 39.5897 34.6307 39.9636 34.8827" stroke="black" stroke-width="0.7" stroke-linecap="round" stroke-linejoin="round"/>
<path d="M23.8517 32.6096L27.519 35.6046L29.0017 35.5651" stroke="black" stroke-width="0.7" stroke-linecap="round" stroke-linejoin="round"/>
<path d="M48.1089 34.3001L49.5817 34.1716L47.2588 31.6807" stroke="black" stroke-width="0.7" stroke-linecap="round" stroke-linejoin="round"/>
<path d="M26.9753 35.3478C26.9753 35.3478 28.1121 46.2208 26.5898 49.7496C25.0676 53.2784 22.2504 48.1385 22.2504 48.1385" stroke="black" stroke-width="0.7" stroke-linecap="round" stroke-linejoin="round"/>
<path d="M49.2457 33.9141C49.2457 33.9141 50.2935 46.5761 46.2803 49.4921C42.2671 52.4081 38.3726 46.3689 38.3726 46.3689" stroke="black" stroke-width="0.7" stroke-linecap="round" stroke-linejoin="round"/>
<path d="M25.453 52.9422C25.3285 52.1466 24.9864 51.4007 24.4646 50.7872C23.8432 50.1419 23.0893 49.6391 22.2549 49.3132C21.4204 48.9873 20.5252 48.8462 19.6309 48.8996C18.9839 49.0091 18.3651 49.2462 17.8108 49.5975C17.2564 49.9487 16.7776 50.4067 16.4021 50.945C16.0267 51.4833 15.7623 52.0912 15.6242 52.7328C15.4862 53.3743 15.4772 54.0366 15.598 54.6817L15.8451 56.0659C19.1691 57.871 22.811 59.0153 26.57 59.4363L25.453 52.9422Z" fill="white" stroke="black" stroke-width="0.7" stroke-linecap="round" stroke-linejoin="round"/>
<path d="M37.4432 42.9981C36.3094 42.5244 35.0432 42.4734 33.875 42.8543C32.7067 43.2353 31.714 44.023 31.0774 45.074L30.4349 46.1315C29.803 47.174 29.5646 48.4081 29.7627 49.6109L24.0593 59.0607C26.0119 59.4535 27.9985 59.6523 29.9901 59.6539C30.9786 59.6539 31.9176 59.6044 32.8665 59.5154L36.4152 53.6343C37.574 53.2532 38.5567 52.4669 39.1829 51.4199L39.8253 50.3624C40.2036 49.7339 40.4427 49.0317 40.5265 48.3029C40.6103 47.5742 40.5368 46.8357 40.311 46.1378C40.0852 45.4398 39.7124 44.7985 39.2177 44.2569C38.723 43.7153 38.1179 43.286 37.4432 42.9981Z" fill="white" stroke="black" stroke-width="0.7" stroke-linecap="round" stroke-linejoin="round"/>
<path d="M35.901 55.6008C34.3841 55.6331 32.8885 55.24 31.5835 54.4661C30.2786 53.6922 29.2163 52.5682 28.5171 51.2217L29.2881 49.7197C30.0761 51.0208 31.151 52.1244 32.4307 52.9467C33.7104 53.769 35.1611 54.2881 36.6719 54.4642L35.901 55.6008Z" fill="#2A7E99" stroke="black" stroke-width="0.7" stroke-linecap="round" stroke-linejoin="round"/>
<path d="M28.8139 50.6785C28.8139 50.6785 28.2405 50.3031 26.6787 51.8847C24.9266 53.9581 23.3837 56.1996 22.0725 58.5766C24.6476 59.2914 27.3078 59.6537 29.9803 59.6539C31.7871 59.6504 33.5901 59.485 35.3674 59.1597C36.2867 57.3705 36.8205 55.8384 36.2867 55.4331C33.2902 54.8351 30.6251 53.1394 28.8139 50.6785Z" fill="#62ACD6" stroke="black" stroke-width="0.7" stroke-linecap="round" stroke-linejoin="round"/>
<path d="M30 60C46.5685 60 60 46.5685 60 30C60 13.4315 46.5685 0 30 0C13.4315 0 0 13.4315 0 30C0 46.5685 13.4315 60 30 60Z" fill="#FFDC3C" stroke="black" stroke-width="0.7" stroke-miterlimit="10"/>
<path d="M13.2522 31.7021C13.2522 31.7021 13.0798 42.5097 14.2873 48.8697C17.2473 48.4166 20.0993 47.4252 22.7022 45.9446C26.8122 43.5446 13.2522 31.7021 13.2522 31.7021Z" fill="#212020" stroke="black" stroke-width="0.7" stroke-miterlimit="10"/>
<path d="M30 60.0003C35.1646 60.0073 40.2426 58.6738 44.7374 56.1303C44.4024 54.5053 43.567 53.026 42.3483 51.9002C41.1296 50.7743 39.5889 50.0583 37.9426 49.8528L24.2175 48.1502C22.0501 47.8806 19.857 48.3825 18.0225 49.5678C17.1719 50.1213 16.4727 50.8783 15.9882 51.7701C15.5037 52.6618 15.2491 53.6604 15.2476 54.6753V56.1152C19.7455 58.6662 24.829 60.0049 30 60.0003Z" fill="white" stroke="black" stroke-width="0.7" stroke-miterlimit="10" stroke-linecap="round"/>
<path d="M29.5208 51.7883C28.578 51.7883 27.6736 51.4137 27.007 50.747C26.3403 50.0803 25.9658 49.1761 25.9658 48.2333V45.9833C25.9658 45.7466 26.0597 45.5196 26.2271 45.3522C26.3945 45.1848 26.6216 45.0908 26.8583 45.0908L30.9232 45.6758C31.4332 45.6758 32.8057 45.4883 32.8057 45.9758V48.4508C32.8117 49.3287 32.4692 50.1732 31.8534 50.7989C31.2375 51.4246 30.3987 51.7803 29.5208 51.7883Z" fill="white" stroke="black" stroke-width="0.7" stroke-miterlimit="10" stroke-linecap="round"/>
<path d="M29.2425 48.952H28.0201C24.1048 48.952 20.3497 47.3971 17.5805 44.6293C14.8113 41.8615 13.2544 38.1072 13.2524 34.1919V29.2194C13.2544 25.3041 14.8113 21.5499 17.5805 18.782C20.3497 16.0142 24.1048 14.4595 28.0201 14.4595H29.2425C37.395 14.4595 39.3675 21.0819 39.3675 29.2344L44.0024 34.1919C44.0024 36.1302 43.6207 38.0496 42.8789 39.8404C42.1371 41.6311 41.0499 43.2583 39.6793 44.6288C38.3087 45.9994 36.6817 47.0867 34.8909 47.8284C33.1002 48.5702 31.1808 48.952 29.2425 48.952Z" fill="white" stroke="black" stroke-width="0.7" stroke-miterlimit="10" stroke-linecap="round"/>
<path d="M12.397 28.7693C12.397 28.7693 20.2944 30.8317 35.7594 30.3142C36.8507 36.8167 36.9947 43.443 36.187 49.9868C36.187 49.9868 45.187 49.5518 49.327 45.9443C49.327 45.9443 54.997 15.5468 34.552 12.9443C34.552 12.9668 13.942 9.01428 12.397 28.7693Z" fill="#212020" stroke="black" stroke-width="0.7" stroke-miterlimit="10"/>
<path d="M18.2322 36.8251C17.8782 36.7828 17.552 36.6121 17.3156 36.3452C17.0791 36.0784 16.949 35.734 16.9497 35.3775V33.3376C16.955 33.1325 17.0023 32.9307 17.0887 32.7447C17.1751 32.5586 17.2987 32.3922 17.452 32.2559C17.6052 32.1195 17.7849 32.016 17.9797 31.9518C18.1745 31.8876 18.3804 31.8641 18.5847 31.8826C18.9361 31.934 19.2578 32.1084 19.4927 32.3749C19.7275 32.6413 19.8602 32.9825 19.8671 33.3376V35.3775C19.8608 35.582 19.8128 35.783 19.726 35.9681C19.6391 36.1533 19.5153 36.3187 19.3621 36.4543C19.209 36.5899 19.0298 36.6927 18.8355 36.7565C18.6412 36.8203 18.4359 36.8436 18.2322 36.8251Z" fill="#212020"/>
<path d="M27.3377 37.68C26.983 37.6393 26.6559 37.469 26.4192 37.2018C26.1825 36.9346 26.0529 36.5894 26.0552 36.2325V34.2C26.0548 33.9941 26.0982 33.7905 26.1823 33.6026C26.2664 33.4147 26.3894 33.2469 26.5432 33.1101C26.697 32.9732 26.8781 32.8706 27.0746 32.8089C27.271 32.7473 27.4782 32.728 27.6826 32.7524C28.038 32.793 28.3661 32.9631 28.604 33.2301C28.842 33.4971 28.9731 33.8423 28.9726 34.2V36.24C28.9721 36.4459 28.9278 36.6494 28.8428 36.837C28.7578 37.0245 28.6339 37.192 28.4793 37.3281C28.3248 37.4642 28.1431 37.566 27.9463 37.6266C27.7495 37.6873 27.542 37.7055 27.3377 37.68Z" fill="#212020"/>
<path d="M35.5649 35.3627C35.8615 34.8554 36.2979 34.444 36.822 34.178C37.346 33.9121 37.9355 33.8026 38.5201 33.8627C40.2076 34.1402 41.3026 36.0677 40.9576 38.1752C40.6126 40.2827 38.9775 41.7677 37.29 41.4977C36.6412 41.3857 36.0565 41.0386 35.6475 40.5227" fill="white"/>
<path d="M35.5649 35.3627C35.8615 34.8554 36.2979 34.444 36.822 34.178C37.346 33.9121 37.9355 33.8026 38.5201 33.8627C40.2076 34.1402 41.3026 36.0677 40.9576 38.1752C40.6126 40.2827 38.9775 41.7677 37.29 41.4977C36.6412 41.3857 36.0565 41.0386 35.6475 40.5227" stroke="black" stroke-width="0.7" stroke-miterlimit="10" stroke-linecap="round"/>
<path d="M35.8131 54.6369C35.474 55.3377 35.3045 56.1085 35.3182 56.8869L35.3705 59.4969C38.7778 58.8838 42.052 57.6808 45.0456 55.9419C44.845 54.7882 44.2376 53.7445 43.3336 53.0001C42.4296 52.2557 41.2889 51.8599 40.1181 51.8844" fill="white"/>
<path d="M35.8131 54.6369C35.474 55.3377 35.3045 56.1085 35.3182 56.8869L35.3705 59.4969C38.7778 58.8838 42.052 57.6808 45.0456 55.9419C44.845 54.7882 44.2376 53.7445 43.3336 53.0001C42.4296 52.2557 41.2889 51.8599 40.1181 51.8844V51.8844" stroke="black" stroke-width="0.7" stroke-miterlimit="10" stroke-linecap="round"/>
<path d="M21.2021 38.2198C21.7367 38.4597 22.3297 38.5378 22.9081 38.4445C23.4866 38.3513 24.0252 38.0906 24.4572 37.6948" stroke="black" stroke-width="0.7" stroke-linecap="round" stroke-linejoin="round"/>
</g>
<defs>
<clipPath id="clip0_2_329">
<rect width="60" height="60" fill="white"/>
</clipPath>
</defs>
</svg>
