<svg width="current" height="current" viewBox="0 0 16 16" fill="none" xmlns="http://www.w3.org/2000/svg">
<rect x="0.35" y="0.350015" width="15.3" height="15.3" rx="7.65" fill="#4498F2" stroke="black" stroke-width="0.7"/>
<path d="M6.28831 6.72801C6.28831 5.97602 6.98431 5.53602 7.99231 5.53602C9.00831 5.53602 9.70431 5.97602 9.70431 6.72801C9.70431 7.48002 9.00831 7.92002 7.99231 7.92002C6.98431 7.92002 6.28831 7.48002 6.28831 6.72801ZM8.52031 9.97602V8.72802C9.82431 8.57602 10.7443 7.82402 10.7443 6.72801C10.7443 5.49602 9.56831 4.69601 7.99231 4.69601C6.42431 4.69601 5.24831 5.49602 5.24831 6.72801C5.24831 7.82402 6.16831 8.56802 7.46431 8.72802V9.97602H4.66431V10.832H11.3363V9.97602H8.52031Z" fill="black"/>
</svg>
